<svg xmlns="http://www.w3.org/2000/svg" width="977.79" height="973.08" viewBox="0 0 977.79 973.08">
	<path d="M1028.9,540A484.16,484.16,0,0,1,885.7,884a490.1,490.1,0,0,1-691.4,0A485.42,485.42,0,0,1,92.48,343.66c22.69-51.08,87.17-68,132.32-34.85l.62.47a87.39,87.39,0,0,1,28,106A308.39,308.39,0,0,0,227.3,540c0,171.59,140.28,311.19,312.7,311.19S852.7,711.59,852.7,540a308.39,308.39,0,0,0-26.08-124.76,87.38,87.38,0,0,1,28-106l.62-.47c45.15-33.16,109.63-16.23,132.32,34.85A481.63,481.63,0,0,1,1028.9,540Z" transform="translate(-51.1 -53.46)" fill="#050606" />
	<path d="M304.73,335A6.67,6.67,0,0,1,293,330.28c1.57-27.67-8.83-54.77-29.15-73.22-24.43-22.18-59.87-28.83-91.93-18.38a6.65,6.65,0,0,1-7.19-10.57,490,490,0,0,1,747.9-3.05,6.65,6.65,0,0,1-7.25,10.6c-28.61-9.82-61-5.21-85.59,13.81a90.53,90.53,0,0,0-34.52,78.67c.51,6.35-7.42,9.64-11.66,4.87A310.47,310.47,0,0,0,540,228.81C448.52,228.81,364.15,267.18,304.73,335Z" transform="translate(-51.1 -53.46)" fill="#050606" />
	<ellipse cx="490.18" cy="486.54" rx="149.93" ry="149.21" fill="#050606" />
    <defs>
    <linearGradient id="gradient" x1="16" x2="16" y1="32" y2="24" gradientUnits="userSpaceOnUse">
      <stop stop-color="#000"/>
      <stop offset="1" stop-color="#000" stop-opacity="0"/>
    </linearGradient>
  </defs>
	<style>
    @media (prefers-color-scheme:light){:root{filter:invert(100%)}}
  </style>
</svg>
